<svg xmlns="http://www.w3.org/2000/svg" viewBox="0 0 440 684" width="440" height="684" role="img" aria-labelledby="t799710"><title id="t799710">Comparison of risky and safer website tracking setups for HIPAA-safe healthcare marketing in Houston</title><defs><linearGradient id="g799710" x1="0" y1="0" x2="1" y2="1"><stop offset="0" stop-color="#01f6f2" stop-opacity=".10"/><stop offset=".5" stop-color="#121014" stop-opacity="0"/></linearGradient><linearGradient id="bar799710" x1="0" y1="0" x2="1" y2="0"><stop offset="0" stop-color="#01f6f2"/><stop offset="1" stop-color="#3ad7ff"/></linearGradient></defs><rect x=".5" y=".5" width="439" height="683" rx="22" fill="#121014" stroke="rgba(255,255,255,.18)"/><rect x=".5" y=".5" width="439" height="683" rx="22" fill="url(#g799710)"/><text x="36" y="52" fill="#ffffff" font-family="'Funnel Display', Figtree, 'Helvetica Neue', Arial, sans-serif" font-size="24" font-weight="600"><tspan x="36" dy="0">Tracking setup for a</tspan><tspan x="36" dy="30">Houston practice</tspan></text><rect x="36" y="120" width="368" height="242" rx="16" fill="rgba(255,255,255,.02)" stroke="rgba(255,255,255,.09)"/><rect x="36" y="378" width="368" height="260" rx="16" fill="rgba(1,246,242,.05)" stroke="rgba(1,246,242,.45)"/><text x="58" y="158" fill="#cfcad2" font-family="'Funnel Display', Figtree, 'Helvetica Neue', Arial, sans-serif" font-size="18" font-weight="600">Risky setup</text><path d="M59 175 l8 8 M67 175 l-8 8" stroke="#8f8a93" stroke-width="2" stroke-linecap="round"/><text x="80" y="184" fill="#cfcad2" font-family="Figtree, 'Helvetica Neue', Arial, sans-serif" font-size="14"><tspan x="80" dy="0">Meta Pixel on the appointment request</tspan><tspan x="80" dy="18">form</tspan></text><path d="M59 227 l8 8 M67 227 l-8 8" stroke="#8f8a93" stroke-width="2" stroke-linecap="round"/><text x="80" y="236" fill="#cfcad2" font-family="Figtree, 'Helvetica Neue', Arial, sans-serif" font-size="14"><tspan x="80" dy="0">Google tag inside the patient portal</tspan></text><path d="M59 261 l8 8 M67 261 l-8 8" stroke="#8f8a93" stroke-width="2" stroke-linecap="round"/><text x="80" y="270" fill="#cfcad2" font-family="Figtree, 'Helvetica Neue', Arial, sans-serif" font-size="14"><tspan x="80" dy="0">Symptom fields sent to ad platforms</tspan></text><path d="M59 295 l8 8 M67 295 l-8 8" stroke="#8f8a93" stroke-width="2" stroke-linecap="round"/><text x="80" y="304" fill="#cfcad2" font-family="Figtree, 'Helvetica Neue', Arial, sans-serif" font-size="14"><tspan x="80" dy="0">No business associate agreements on</tspan><tspan x="80" dy="18">file</tspan></text><text x="58" y="416" fill="#01f6f2" font-family="'Funnel Display', Figtree, 'Helvetica Neue', Arial, sans-serif" font-size="18" font-weight="600">Safer setup</text><path d="M58 438 l4 4 l7 -8" fill="none" stroke="#01f6f2" stroke-width="2.2" stroke-linecap="round"/><text x="80" y="442" fill="#ffffff" font-family="Figtree, 'Helvetica Neue', Arial, sans-serif" font-size="14"><tspan x="80" dy="0">No ad pixels on forms, booking or</tspan><tspan x="80" dy="18">portal</tspan></text><path d="M58 490 l4 4 l7 -8" fill="none" stroke="#01f6f2" stroke-width="2.2" stroke-linecap="round"/><text x="80" y="494" fill="#ffffff" font-family="Figtree, 'Helvetica Neue', Arial, sans-serif" font-size="14"><tspan x="80" dy="0">HIPAA-eligible analytics with a signed</tspan><tspan x="80" dy="18">BAA</tspan></text><path d="M58 542 l4 4 l7 -8" fill="none" stroke="#01f6f2" stroke-width="2.2" stroke-linecap="round"/><text x="80" y="546" fill="#ffffff" font-family="Figtree, 'Helvetica Neue', Arial, sans-serif" font-size="14"><tspan x="80" dy="0">Only anonymous conversions sent to ads</tspan></text><path d="M58 576 l4 4 l7 -8" fill="none" stroke="#01f6f2" stroke-width="2.2" stroke-linecap="round"/><text x="80" y="580" fill="#ffffff" font-family="Figtree, 'Helvetica Neue', Arial, sans-serif" font-size="14"><tspan x="80" dy="0">Yearly tag audit with your compliance</tspan><tspan x="80" dy="18">lead</tspan></text><text x="404" y="662" text-anchor="end" fill="#8f8a93" font-family="'Funnel Display', Figtree, 'Helvetica Neue', Arial, sans-serif" font-size="12" letter-spacing="1">first<tspan fill="#01f6f2">byte</tspan></text></svg>