<svg xmlns="http://www.w3.org/2000/svg" viewBox="0 0 800 350" width="800" height="350" role="img" aria-labelledby="t265028"><title id="t265028">Checklist for a Google Business Profile health check that answers most scam call threats for Woodlands businesses</title><defs><linearGradient id="g265028" x1="0" y1="0" x2="1" y2="1"><stop offset="0" stop-color="#01f6f2" stop-opacity=".10"/><stop offset=".5" stop-color="#121014" stop-opacity="0"/></linearGradient><linearGradient id="bar265028" x1="0" y1="0" x2="1" y2="0"><stop offset="0" stop-color="#01f6f2"/><stop offset="1" stop-color="#3ad7ff"/></linearGradient></defs><rect x=".5" y=".5" width="799" height="349" rx="22" fill="#121014" stroke="rgba(255,255,255,.18)"/><rect x=".5" y=".5" width="799" height="349" rx="22" fill="url(#g265028)"/><text x="36" y="52" fill="#ffffff" font-family="'Funnel Display', Figtree, 'Helvetica Neue', Arial, sans-serif" font-size="24" font-weight="600"><tspan x="36" dy="0">10-minute Business Profile health check</tspan></text><text x="36" y="78" fill="#8f8a93" font-family="Figtree, 'Helvetica Neue', Arial, sans-serif" font-size="14"><tspan x="36" dy="0">Free, no phone call required, once a quarter</tspan></text><rect x="36.0" y="116" width="22" height="22" rx="7" fill="rgba(1,246,242,.12)" stroke="#01f6f2"/><path d="M42.0 127.5 l4 4 l7 -8" fill="none" stroke="#01f6f2" stroke-width="2.4" stroke-linecap="round" stroke-linejoin="round"/><text x="70.0" y="132" fill="#cfcad2" font-family="Figtree, 'Helvetica Neue', Arial, sans-serif" font-size="14.5"><tspan x="70.0" dy="0">Profile shows edit options when you</tspan><tspan x="70.0" dy="19">search your name</tspan></text><rect x="36.0" y="174" width="22" height="22" rx="7" fill="rgba(1,246,242,.12)" stroke="#01f6f2"/><path d="M42.0 185.5 l4 4 l7 -8" fill="none" stroke="#01f6f2" stroke-width="2.4" stroke-linecap="round" stroke-linejoin="round"/><text x="70.0" y="190" fill="#cfcad2" font-family="Figtree, 'Helvetica Neue', Arial, sans-serif" font-size="14.5"><tspan x="70.0" dy="0">Dashboard shows the profile as verified</tspan></text><rect x="36.0" y="213" width="22" height="22" rx="7" fill="rgba(1,246,242,.12)" stroke="#01f6f2"/><path d="M42.0 224.5 l4 4 l7 -8" fill="none" stroke="#01f6f2" stroke-width="2.4" stroke-linecap="round" stroke-linejoin="round"/><text x="70.0" y="229" fill="#cfcad2" font-family="Figtree, 'Helvetica Neue', Arial, sans-serif" font-size="14.5"><tspan x="70.0" dy="0">You recognize every owner and manager</tspan></text><rect x="36.0" y="252" width="22" height="22" rx="7" fill="rgba(1,246,242,.12)" stroke="#01f6f2"/><path d="M42.0 263.5 l4 4 l7 -8" fill="none" stroke="#01f6f2" stroke-width="2.4" stroke-linecap="round" stroke-linejoin="round"/><text x="70.0" y="268" fill="#cfcad2" font-family="Figtree, 'Helvetica Neue', Arial, sans-serif" font-size="14.5"><tspan x="70.0" dy="0">You are an owner on an account you</tspan><tspan x="70.0" dy="19">control</tspan></text><rect x="400.0" y="116" width="22" height="22" rx="7" fill="rgba(1,246,242,.12)" stroke="#01f6f2"/><path d="M406.0 127.5 l4 4 l7 -8" fill="none" stroke="#01f6f2" stroke-width="2.4" stroke-linecap="round" stroke-linejoin="round"/><text x="434.0" y="132" fill="#cfcad2" font-family="Figtree, 'Helvetica Neue', Arial, sans-serif" font-size="14.5"><tspan x="434.0" dy="0">Phone, website and address are correct</tspan></text><rect x="400.0" y="155" width="22" height="22" rx="7" fill="rgba(1,246,242,.12)" stroke="#01f6f2"/><path d="M406.0 166.5 l4 4 l7 -8" fill="none" stroke="#01f6f2" stroke-width="2.4" stroke-linecap="round" stroke-linejoin="round"/><text x="434.0" y="171" fill="#cfcad2" font-family="Figtree, 'Helvetica Neue', Arial, sans-serif" font-size="14.5"><tspan x="434.0" dy="0">No unexplained spike of one-star</tspan><tspan x="434.0" dy="19">reviews</tspan></text><rect x="400.0" y="213" width="22" height="22" rx="7" fill="rgba(1,246,242,.12)" stroke="#01f6f2"/><path d="M406.0 224.5 l4 4 l7 -8" fill="none" stroke="#01f6f2" stroke-width="2.4" stroke-linecap="round" stroke-linejoin="round"/><text x="434.0" y="229" fill="#cfcad2" font-family="Figtree, 'Helvetica Neue', Arial, sans-serif" font-size="14.5"><tspan x="434.0" dy="0">2-Step Verification is on for the owner</tspan><tspan x="434.0" dy="19">account</tspan></text><text x="764" y="328" text-anchor="end" fill="#8f8a93" font-family="'Funnel Display', Figtree, 'Helvetica Neue', Arial, sans-serif" font-size="12" letter-spacing="1">first<tspan fill="#01f6f2">byte</tspan></text></svg>