<svg xmlns="http://www.w3.org/2000/svg" viewBox="0 0 800 400" width="800" height="400" role="img" aria-labelledby="t580426"><title id="t580426">Column chart of example wedding venue inquiries by month peaking January to March for Houston and Montgomery County venues</title><defs><linearGradient id="g580426" x1="0" y1="0" x2="1" y2="1"><stop offset="0" stop-color="#01f6f2" stop-opacity=".10"/><stop offset=".5" stop-color="#121014" stop-opacity="0"/></linearGradient><linearGradient id="bar580426" x1="0" y1="0" x2="1" y2="0"><stop offset="0" stop-color="#01f6f2"/><stop offset="1" stop-color="#3ad7ff"/></linearGradient></defs><rect x=".5" y=".5" width="799" height="399" rx="22" fill="#121014" stroke="rgba(255,255,255,.18)"/><rect x=".5" y=".5" width="799" height="399" rx="22" fill="url(#g580426)"/><text x="36" y="52" fill="#ffffff" font-family="'Funnel Display', Figtree, 'Helvetica Neue', Arial, sans-serif" font-size="24" font-weight="600"><tspan x="36" dy="0">When venue inquiries come in</tspan></text><text x="36" y="78" fill="#8f8a93" font-family="Figtree, 'Helvetica Neue', Arial, sans-serif" font-size="14"><tspan x="36" dy="0">Example inquiry volume by month for a Houston-area venue</tspan></text><line x1="70" x2="764" y1="320.0" y2="320.0" stroke="rgba(255,255,255,.09)"/><line x1="70" x2="764" y1="221.0" y2="221.0" stroke="rgba(255,255,255,.09)"/><line x1="70" x2="764" y1="122.0" y2="122.0" stroke="rgba(255,255,255,.09)"/><text x="56" y="221" fill="#8f8a93" font-family="Figtree, 'Helvetica Neue', Arial, sans-serif" font-size="12" text-anchor="middle" transform="rotate(-90 56 221)">Inquiries vs. peak</text><rect x="80.4" y="122.0" width="37.0" height="198.0" rx="6" fill="url(#bar580426)"/><text x="98.9" y="342" text-anchor="middle" fill="#ffffff" font-family="Figtree, 'Helvetica Neue', Arial, sans-serif" font-size="13" font-weight="600">Jan</text><rect x="138.2" y="145.8" width="37.0" height="174.2" rx="6" fill="url(#bar580426)"/><text x="156.8" y="342" text-anchor="middle" fill="#ffffff" font-family="Figtree, 'Helvetica Neue', Arial, sans-serif" font-size="13" font-weight="600">Feb</text><rect x="196.1" y="173.5" width="37.0" height="146.5" rx="6" fill="url(#bar580426)"/><text x="214.6" y="342" text-anchor="middle" fill="#ffffff" font-family="Figtree, 'Helvetica Neue', Arial, sans-serif" font-size="13" font-weight="600">Mar</text><rect x="253.9" y="205.2" width="37.0" height="114.8" rx="6" fill="rgba(255,255,255,.14)"/><text x="272.4" y="342" text-anchor="middle" fill="#8f8a93" font-family="Figtree, 'Helvetica Neue', Arial, sans-serif" font-size="13" font-weight="400">Apr</text><rect x="311.7" y="228.9" width="37.0" height="91.1" rx="6" fill="rgba(255,255,255,.14)"/><text x="330.3" y="342" text-anchor="middle" fill="#8f8a93" font-family="Figtree, 'Helvetica Neue', Arial, sans-serif" font-size="13" font-weight="400">May</text><rect x="369.6" y="240.8" width="37.0" height="79.2" rx="6" fill="rgba(255,255,255,.14)"/><text x="388.1" y="342" text-anchor="middle" fill="#8f8a93" font-family="Figtree, 'Helvetica Neue', Arial, sans-serif" font-size="13" font-weight="400">Jun</text><rect x="427.4" y="244.8" width="37.0" height="75.2" rx="6" fill="rgba(255,255,255,.14)"/><text x="445.9" y="342" text-anchor="middle" fill="#8f8a93" font-family="Figtree, 'Helvetica Neue', Arial, sans-serif" font-size="13" font-weight="400">Jul</text><rect x="485.2" y="232.9" width="37.0" height="87.1" rx="6" fill="rgba(255,255,255,.14)"/><text x="503.8" y="342" text-anchor="middle" fill="#8f8a93" font-family="Figtree, 'Helvetica Neue', Arial, sans-serif" font-size="13" font-weight="400">Aug</text><rect x="543.1" y="217.0" width="37.0" height="103.0" rx="6" fill="rgba(255,255,255,.14)"/><text x="561.6" y="342" text-anchor="middle" fill="#8f8a93" font-family="Figtree, 'Helvetica Neue', Arial, sans-serif" font-size="13" font-weight="400">Sep</text><rect x="600.9" y="209.1" width="37.0" height="110.9" rx="6" fill="rgba(255,255,255,.14)"/><text x="619.4" y="342" text-anchor="middle" fill="#8f8a93" font-family="Figtree, 'Helvetica Neue', Arial, sans-serif" font-size="13" font-weight="400">Oct</text><rect x="658.7" y="201.2" width="37.0" height="118.8" rx="6" fill="rgba(255,255,255,.14)"/><text x="677.2" y="342" text-anchor="middle" fill="#8f8a93" font-family="Figtree, 'Helvetica Neue', Arial, sans-serif" font-size="13" font-weight="400">Nov</text><rect x="716.6" y="177.4" width="37.0" height="142.6" rx="6" fill="rgba(255,255,255,.14)"/><text x="735.1" y="342" text-anchor="middle" fill="#8f8a93" font-family="Figtree, 'Helvetica Neue', Arial, sans-serif" font-size="13" font-weight="400">Dec</text><text x="36" y="378" fill="#8f8a93" font-family="Figtree, 'Helvetica Neue', Arial, sans-serif" font-size="12"><tspan x="36" dy="0">Illustrative example</tspan></text><text x="764" y="378" text-anchor="end" fill="#8f8a93" font-family="'Funnel Display', Figtree, 'Helvetica Neue', Arial, sans-serif" font-size="12" letter-spacing="1">first<tspan fill="#01f6f2">byte</tspan></text></svg>